<mxfile host="app.diagrams.net" modified="2023-11-17T11:13:33.862Z" agent="Mozilla/5.0 (Windows NT 10.0; Win64; x64) AppleWebKit/537.36 (KHTML, like Gecko) Chrome/119.0.0.0 Safari/537.36" etag="lvvx8EmJSz8pk3ihDG1p" version="22.1.2" type="device">
  <diagram name="Страница — 1" id="FYUcbcnaf--P3dexhryS">
    <mxGraphModel dx="756" dy="390" grid="1" gridSize="10" guides="1" tooltips="1" connect="1" arrows="1" fold="1" page="1" pageScale="1" pageWidth="827" pageHeight="1169" math="0" shadow="0">
      <root>
        <mxCell id="0" />
        <mxCell id="1" parent="0" />
        <mxCell id="7M7wtbTKfdPqytFjPpsr-1" value="" style="rounded=0;whiteSpace=wrap;html=1;fillColor=#B0B8FF;" parent="1" vertex="1">
          <mxGeometry x="160" y="50" width="440" height="460" as="geometry" />
        </mxCell>
        <mxCell id="7M7wtbTKfdPqytFjPpsr-3" value="" style="rounded=1;whiteSpace=wrap;html=1;strokeColor=none;" parent="1" vertex="1">
          <mxGeometry x="230" y="110" width="300" height="380" as="geometry" />
        </mxCell>
        <mxCell id="7M7wtbTKfdPqytFjPpsr-6" value="" style="shape=cross;whiteSpace=wrap;html=1;rotation=45;size=0;" parent="1" vertex="1">
          <mxGeometry x="489.73" y="130.92" width="23.6" height="22.93" as="geometry" />
        </mxCell>
        <mxCell id="7M7wtbTKfdPqytFjPpsr-9" value="Подтверждение" style="text;strokeColor=none;fillColor=none;html=1;fontSize=24;fontStyle=1;verticalAlign=middle;align=center;" parent="1" vertex="1">
          <mxGeometry x="330" y="130.92" width="100" height="40" as="geometry" />
        </mxCell>
        <mxCell id="7M7wtbTKfdPqytFjPpsr-15" value="" style="rounded=1;whiteSpace=wrap;html=1;fillColor=#0000FF;fontColor=#FFFFFF;strokeColor=none;" parent="1" vertex="1">
          <mxGeometry x="277" y="420" width="206" height="30" as="geometry" />
        </mxCell>
        <mxCell id="7M7wtbTKfdPqytFjPpsr-16" value="Забронировать" style="text;html=1;strokeColor=none;fillColor=none;align=center;verticalAlign=middle;whiteSpace=wrap;rounded=0;fontColor=#FFFFFF;" parent="1" vertex="1">
          <mxGeometry x="350" y="420" width="60" height="30" as="geometry" />
        </mxCell>
        <mxCell id="PR7aIYtVCX7w1PCpPqz6-29" value="Дата" style="text;html=1;strokeColor=none;fillColor=none;align=center;verticalAlign=middle;whiteSpace=wrap;rounded=0;fontStyle=1" parent="1" vertex="1">
          <mxGeometry x="287" y="190" width="60" height="30" as="geometry" />
        </mxCell>
        <mxCell id="PR7aIYtVCX7w1PCpPqz6-31" value="Время" style="text;html=1;strokeColor=none;fillColor=none;align=center;verticalAlign=middle;whiteSpace=wrap;rounded=0;fontStyle=1" parent="1" vertex="1">
          <mxGeometry x="287" y="220" width="60" height="30" as="geometry" />
        </mxCell>
        <mxCell id="PR7aIYtVCX7w1PCpPqz6-32" value="Зал" style="text;html=1;strokeColor=none;fillColor=none;align=center;verticalAlign=middle;whiteSpace=wrap;rounded=0;fontStyle=1" parent="1" vertex="1">
          <mxGeometry x="287" y="250" width="60" height="30" as="geometry" />
        </mxCell>
        <mxCell id="PR7aIYtVCX7w1PCpPqz6-33" value="Стол" style="text;html=1;strokeColor=none;fillColor=none;align=center;verticalAlign=middle;whiteSpace=wrap;rounded=0;fontStyle=1" parent="1" vertex="1">
          <mxGeometry x="287" y="280" width="60" height="30" as="geometry" />
        </mxCell>
        <mxCell id="PR7aIYtVCX7w1PCpPqz6-34" value="Персон" style="text;html=1;strokeColor=none;fillColor=none;align=center;verticalAlign=middle;whiteSpace=wrap;rounded=0;fontStyle=1" parent="1" vertex="1">
          <mxGeometry x="287" y="310" width="60" height="30" as="geometry" />
        </mxCell>
        <mxCell id="PR7aIYtVCX7w1PCpPqz6-35" value="17.11.2023" style="text;html=1;strokeColor=none;fillColor=none;align=center;verticalAlign=middle;whiteSpace=wrap;rounded=0;" parent="1" vertex="1">
          <mxGeometry x="380" y="190" width="60" height="30" as="geometry" />
        </mxCell>
        <mxCell id="PR7aIYtVCX7w1PCpPqz6-36" value="20:00" style="text;html=1;strokeColor=none;fillColor=none;align=center;verticalAlign=middle;whiteSpace=wrap;rounded=0;" parent="1" vertex="1">
          <mxGeometry x="380" y="220" width="60" height="30" as="geometry" />
        </mxCell>
        <mxCell id="PR7aIYtVCX7w1PCpPqz6-37" value="2" style="text;html=1;strokeColor=none;fillColor=none;align=center;verticalAlign=middle;whiteSpace=wrap;rounded=0;" parent="1" vertex="1">
          <mxGeometry x="380" y="250" width="60" height="30" as="geometry" />
        </mxCell>
        <mxCell id="PR7aIYtVCX7w1PCpPqz6-38" value="5" style="text;html=1;strokeColor=none;fillColor=none;align=center;verticalAlign=middle;whiteSpace=wrap;rounded=0;" parent="1" vertex="1">
          <mxGeometry x="380" y="280" width="60" height="30" as="geometry" />
        </mxCell>
        <mxCell id="PR7aIYtVCX7w1PCpPqz6-39" value="2" style="text;html=1;strokeColor=none;fillColor=none;align=center;verticalAlign=middle;whiteSpace=wrap;rounded=0;" parent="1" vertex="1">
          <mxGeometry x="380" y="310" width="60" height="30" as="geometry" />
        </mxCell>
        <mxCell id="PR7aIYtVCX7w1PCpPqz6-40" value="Телефон" style="text;html=1;strokeColor=none;fillColor=none;align=center;verticalAlign=middle;whiteSpace=wrap;rounded=0;fontStyle=1" parent="1" vertex="1">
          <mxGeometry x="287" y="340" width="60" height="30" as="geometry" />
        </mxCell>
        <mxCell id="PR7aIYtVCX7w1PCpPqz6-42" value="89991122333" style="text;html=1;strokeColor=none;fillColor=none;align=center;verticalAlign=middle;whiteSpace=wrap;rounded=0;" parent="1" vertex="1">
          <mxGeometry x="380" y="340" width="60" height="30" as="geometry" />
        </mxCell>
        <mxCell id="Oe44TJtjHsyN8h7J8hER-1" value="Депозит" style="text;html=1;strokeColor=none;fillColor=none;align=center;verticalAlign=middle;whiteSpace=wrap;rounded=0;fontStyle=1" vertex="1" parent="1">
          <mxGeometry x="290" y="370" width="60" height="30" as="geometry" />
        </mxCell>
        <mxCell id="Oe44TJtjHsyN8h7J8hER-2" value="3000 руб." style="text;html=1;strokeColor=none;fillColor=none;align=center;verticalAlign=middle;whiteSpace=wrap;rounded=0;" vertex="1" parent="1">
          <mxGeometry x="380" y="370" width="60" height="30" as="geometry" />
        </mxCell>
      </root>
    </mxGraphModel>
  </diagram>
</mxfile>
